<svg width="138" height="48" viewBox="0 0 138 48" fill="none" xmlns="http://www.w3.org/2000/svg">
<path d="M67.49 30H61.134V19.766H67.49V21.418H62.296L62.926 20.844V24.05H67.014V25.632H62.926V28.922L62.296 28.348H67.49V30ZM71.4332 30H69.6692V19.766L71.4472 19.766L76.7672 27.816H76.2492V19.766H78.0132V30L76.2492 30L70.9152 21.964H71.4332V30ZM84.4205 20.62V30H82.6285V20.62H84.4205ZM79.6325 21.418V19.766H87.4165V21.418H79.6325ZM90.8283 30H89.0363V19.766H92.9423C94.0997 19.766 95.0003 20.046 95.6443 20.606C96.2977 21.166 96.6243 21.95 96.6243 22.958C96.6243 23.6393 96.4657 24.2227 96.1483 24.708C95.8403 25.184 95.383 25.548 94.7763 25.8L96.7223 30H94.7623L93.0263 26.178H90.8283V30ZM90.8283 21.362V24.596H92.9423C93.5117 24.596 93.955 24.4513 94.2723 24.162C94.5897 23.8727 94.7483 23.4713 94.7483 22.958C94.7483 22.4447 94.5897 22.0527 94.2723 21.782C93.955 21.502 93.5117 21.362 92.9423 21.362L90.8283 21.362ZM99.5333 30H97.6853L101.381 19.766H103.215L106.911 30H105.021L104.195 27.634H100.373L99.5333 30ZM102.067 22.818L100.891 26.122H103.677L102.501 22.818C102.464 22.678 102.422 22.538 102.375 22.398C102.329 22.258 102.301 22.1367 102.291 22.034C102.273 22.1273 102.24 22.2487 102.193 22.398C102.156 22.538 102.114 22.678 102.067 22.818ZM110.209 30H108.445V19.766H110.223L115.543 27.816H115.025V19.766L116.789 19.766V30H115.025L109.691 21.964H110.209V30ZM123.63 30.168C122.631 30.168 121.763 29.9533 121.026 29.524C120.298 29.0853 119.729 28.474 119.318 27.69C118.917 26.8967 118.716 25.9633 118.716 24.89C118.716 23.826 118.921 22.8973 119.332 22.104C119.752 21.3107 120.34 20.6947 121.096 20.256C121.852 19.8173 122.725 19.598 123.714 19.598C124.526 19.598 125.254 19.7473 125.898 20.046C126.542 20.3447 127.074 20.7647 127.494 21.306C127.914 21.838 128.18 22.4727 128.292 23.21H126.402C126.225 22.6127 125.893 22.1507 125.408 21.824C124.932 21.488 124.349 21.32 123.658 21.32C123.042 21.32 122.501 21.4647 122.034 21.754C121.577 22.0433 121.222 22.454 120.97 22.986C120.718 23.518 120.592 24.1527 120.592 24.89C120.592 25.5993 120.718 26.2247 120.97 26.766C121.222 27.298 121.577 27.7133 122.034 28.012C122.501 28.3013 123.042 28.446 123.658 28.446C124.358 28.446 124.955 28.278 125.45 27.942C125.954 27.606 126.29 27.1533 126.458 26.584H128.32C128.189 27.2933 127.905 27.9187 127.466 28.46C127.037 29.0013 126.491 29.4213 125.828 29.72C125.175 30.0187 124.442 30.168 123.63 30.168ZM136.533 30L130.177 30V19.766H136.533V21.418H131.339L131.969 20.844V24.05L136.057 24.05V25.632L131.969 25.632V28.922L131.339 28.348L136.533 28.348V30Z" fill="#1F1B13"/>
<circle cx="24" cy="24" r="23.5" fill="#CBDDD5" stroke="#7E7667"/>
<mask id="mask0_33_9" style="mask-type:alpha" maskUnits="userSpaceOnUse" x="15" y="14" width="18" height="19">
<rect x="15" y="14.8213" width="18" height="18" fill="#D9D9D9"/>
</mask>
<g mask="url(#mask0_33_9)">
<path d="M17.623 30.1963V29.0713H19.123V18.8021C19.123 18.4232 19.2543 18.1025 19.5168 17.84C19.7793 17.5775 20.1 17.4463 20.4789 17.4463H27.5172C27.8961 17.4463 28.2168 17.5775 28.4793 17.84C28.7418 18.1025 28.873 18.4232 28.873 18.8021V29.0713H30.373V30.1963H17.623ZM27.748 29.0713V18.8021C27.748 18.7444 27.724 18.6915 27.6759 18.6435C27.6279 18.5954 27.575 18.5713 27.5172 18.5713H20.4789C20.4211 18.5713 20.3682 18.5954 20.3202 18.6435C20.2721 18.6915 20.248 18.7444 20.248 18.8021V29.0713H27.748ZM25.5847 24.4847C25.7683 24.4847 25.9247 24.42 26.054 24.2908C26.1834 24.1614 26.248 24.0049 26.248 23.8213C26.248 23.6377 26.1834 23.4812 26.054 23.3518C25.9247 23.2225 25.7683 23.1579 25.5847 23.1579C25.4009 23.1579 25.2444 23.2225 25.1152 23.3518C24.9858 23.4812 24.9211 23.6377 24.9211 23.8213C24.9211 24.0049 24.9858 24.1614 25.1152 24.2908C25.2444 24.42 25.4009 24.4847 25.5847 24.4847Z" fill="#1C1B1F"/>
</g>
</svg>
